<?xml version="1.0" standalone="no"?><!DOCTYPE svg PUBLIC "-//W3C//DTD SVG 1.1//EN" "http://www.w3.org/Graphics/SVG/1.1/DTD/svg11.dtd"><svg t="1770870728930" class="icon" viewBox="0 0 1024 1024" version="1.1" xmlns="http://www.w3.org/2000/svg" p-id="30953" xmlns:xlink="http://www.w3.org/1999/xlink" width="128" height="128"><path d="M68.288 238.912A136.512 136.512 0 0 1 204.8 102.4h614.4a136.512 136.512 0 0 1 136.512 136.512v546.112A136.512 136.512 0 0 1 819.2 921.6H204.8a136.512 136.512 0 0 1-136.512-136.512V238.976z" fill="#FF7744" p-id="30954"></path><path d="M170.688 512a102.4 102.4 0 0 1 102.4-102.4h477.888a102.4 102.4 0 0 1 102.4 102.4v204.8a102.4 102.4 0 0 1-102.4 102.4H273.088a102.4 102.4 0 0 1-102.4-102.4z" fill="#FFAA44" p-id="30955"></path><path d="M636.352 643.392a34.112 34.112 0 0 0 0-57.6l-174.528-108.8a34.112 34.112 0 0 0-52.224 28.928v218.176a34.112 34.112 0 0 0 52.224 28.928zM273.088 187.712a51.2 51.2 0 0 1 51.2 51.2v34.112a51.2 51.2 0 1 1-102.4 0v-34.112a51.2 51.2 0 0 1 51.2-51.2z m238.912 0a51.2 51.2 0 0 1 51.2 51.2v34.112a51.2 51.2 0 1 1-102.4 0v-34.112a51.2 51.2 0 0 1 51.2-51.2z m238.912 0a51.2 51.2 0 0 1 51.2 51.2v34.112a51.2 51.2 0 1 1-102.4 0v-34.112a51.2 51.2 0 0 1 51.264-51.2z" fill="#FFFFFF" p-id="30956"></path></svg>